<svg xmlns="http://www.w3.org/2000/svg" width="512" height="512" viewBox="0 0 512 512">

  <!-- fondo -->
  <rect x="0" y="0" width="512" height="512" rx="96" fill="#ffffff"/>

  <!-- icono centrado con padding -->
  <g transform="translate(85,85) scale(0.666)">
    
    <path d="M16 4h2a2 2 0 0 1 2 2v2m1.34 7.664a2.124 2.124 0 0 0-3.004-3.004l-5.01 5.012a2 2 0 0 0-.506.854l-.837 2.87a.5.5 0 0 0 .62.62l2.87-.837a2 2 0 0 0 .854-.506ZM8 22H6a2 2 0 0 1-2-2V6a2 2 0 0 1 2-2h2m1-2h6a1 1 0 0 1 1 1v2a1 1 0 0 1-1 1H9a1 1 0 0 1-1-1V3a1 1 0 0 1 1-1"
      fill="none"
      stroke="#f97316"
      stroke-width="2"
      stroke-linecap="round"
      stroke-linejoin="round"
      transform="scale(21.33333)"
    />

  </g>

</svg>